<svg width="22" height="17" viewBox="0 0 22 17" fill="none" xmlns="http://www.w3.org/2000/svg">
<path d="M11 17C10.8684 17.0007 10.7379 16.9755 10.6161 16.9258C10.4943 16.876 10.3834 16.8027 10.29 16.71L2.51999 8.92999C1.54536 7.94516 0.998657 6.61555 0.998657 5.22999C0.998657 3.84442 1.54536 2.51481 2.51999 1.52999C3.50226 0.550497 4.83283 0.000457764 6.21999 0.000457764C7.60716 0.000457764 8.93773 0.550497 9.91999 1.52999L11 2.60999L12.08 1.52999C13.0623 0.550497 14.3928 0.000457764 15.78 0.000457764C17.1672 0.000457764 18.4977 0.550497 19.48 1.52999C20.4546 2.51481 21.0013 3.84442 21.0013 5.22999C21.0013 6.61555 20.4546 7.94516 19.48 8.92999L11.71 16.71C11.6166 16.8027 11.5057 16.876 11.3839 16.9258C11.2621 16.9755 11.1316 17.0007 11 17ZM6.21999 1.99999C5.79667 1.99807 5.37717 2.08017 4.9858 2.24152C4.59443 2.40288 4.23897 2.64028 3.93999 2.93999C3.33605 3.54711 2.99703 4.36863 2.99703 5.22499C2.99703 6.08134 3.33605 6.90286 3.93999 7.50999L11 14.58L18.06 7.50999C18.6639 6.90286 19.003 6.08134 19.003 5.22499C19.003 4.36863 18.6639 3.54711 18.06 2.93999C17.4437 2.35769 16.6279 2.03328 15.78 2.03328C14.9321 2.03328 14.1163 2.35769 13.5 2.93999L11.71 4.73999C11.617 4.83371 11.5064 4.90811 11.3846 4.95888C11.2627 5.00965 11.132 5.03578 11 5.03578C10.868 5.03578 10.7373 5.00965 10.6154 4.95888C10.4936 4.90811 10.383 4.83371 10.29 4.73999L8.49999 2.93999C8.20102 2.64028 7.84556 2.40288 7.45419 2.24152C7.06282 2.08017 6.64332 1.99807 6.21999 1.99999Z" fill="#EA2069"/>
</svg>
