<svg width="16" height="16" viewBox="0 0 16 16" fill="none" xmlns="http://www.w3.org/2000/svg">
<path d="M5.73999 14.6667C5.41467 14.6648 5.0988 14.5571 4.83999 14.36L3.45999 13.3333C3.14153 13.085 2.93023 12.7242 2.86948 12.325C2.80873 11.9258 2.90314 11.5185 3.13333 11.1867C3.25512 11.0068 3.33252 10.8007 3.35917 10.5851C3.38583 10.3696 3.36098 10.1508 3.28666 9.94668L3.24666 9.84001C3.19491 9.65528 3.10033 9.48536 2.9706 9.34405C2.84086 9.20273 2.67963 9.094 2.49999 9.02668H2.39333C2.00391 8.89573 1.68187 8.61645 1.49713 8.24948C1.3124 7.88251 1.27989 7.45748 1.40666 7.06668L1.95333 5.33334C2.00365 5.13252 2.0963 4.94476 2.22507 4.78265C2.35384 4.62053 2.51576 4.4878 2.69999 4.39334C2.87156 4.30494 3.05928 4.25228 3.25179 4.23852C3.4443 4.22477 3.6376 4.25023 3.81999 4.31334C4.01858 4.38018 4.23049 4.3975 4.4373 4.36381C4.6441 4.33012 4.83955 4.24642 5.00666 4.12001L5.09333 4.05334C5.24459 3.93265 5.36684 3.77954 5.45107 3.60532C5.5353 3.4311 5.57935 3.24019 5.57999 3.04668V2.88668C5.5782 2.47876 5.73763 2.08666 6.02356 1.79573C6.30949 1.5048 6.69878 1.33861 7.10666 1.33334H8.80666C9.00511 1.33388 9.2015 1.37361 9.38455 1.45027C9.5676 1.52692 9.73371 1.63898 9.87333 1.78001C10.1669 2.07854 10.3299 2.48136 10.3267 2.90001V3.08668C10.3233 3.27051 10.3631 3.45257 10.443 3.61816C10.523 3.78376 10.6407 3.92826 10.7867 4.04001L10.86 4.09334C11.0096 4.20554 11.1842 4.2799 11.3687 4.31009C11.5533 4.34027 11.7424 4.32537 11.92 4.26668L12.1467 4.19334C12.3387 4.12968 12.5416 4.10536 12.7432 4.12181C12.9449 4.13826 13.1412 4.19516 13.3204 4.2891C13.4995 4.38305 13.658 4.51212 13.7862 4.66862C13.9144 4.82513 14.0098 5.00585 14.0667 5.20001L14.5933 6.88001C14.7152 7.26827 14.6819 7.68865 14.5004 8.05287C14.3189 8.4171 14.0033 8.69683 13.62 8.83334L13.4867 8.88001C13.2906 8.94423 13.1132 9.05562 12.9702 9.20441C12.8273 9.3532 12.723 9.53483 12.6667 9.73334C12.6136 9.91788 12.601 10.1117 12.6298 10.3016C12.6585 10.4914 12.728 10.6728 12.8333 10.8333L13.0067 11.0867C13.2365 11.4203 13.3301 11.8292 13.2681 12.2296C13.2061 12.63 12.9933 12.9915 12.6733 13.24L11.3333 14.2733C11.1714 14.3972 10.9859 14.4865 10.7882 14.5359C10.5905 14.5853 10.3847 14.5937 10.1836 14.5606C9.98253 14.5275 9.79033 14.4536 9.61888 14.3435C9.44742 14.2333 9.30033 14.0892 9.18666 13.92L9.10666 13.8067C8.99747 13.6426 8.84849 13.5088 8.67362 13.4179C8.49875 13.327 8.3037 13.2818 8.10666 13.2867C7.91864 13.2915 7.7344 13.3405 7.56881 13.4297C7.40321 13.5189 7.26089 13.6457 7.15333 13.8L6.99999 14.02C6.88629 14.1904 6.7389 14.3356 6.56692 14.4468C6.39493 14.5581 6.20199 14.6329 5.99999 14.6667C5.91353 14.6751 5.82645 14.6751 5.73999 14.6667ZM2.93333 7.74668C3.30979 7.88092 3.64948 8.10166 3.92506 8.39113C4.20064 8.68061 4.40442 9.03074 4.51999 9.41334V9.49334C4.66395 9.8911 4.71122 10.3174 4.65789 10.737C4.60457 11.1566 4.45219 11.5576 4.21333 11.9067C4.17116 11.9533 4.14782 12.0138 4.14782 12.0767C4.14782 12.1395 4.17116 12.2001 4.21333 12.2467L5.64666 13.3333C5.66536 13.348 5.68699 13.3585 5.71009 13.3642C5.73319 13.3698 5.75723 13.3705 5.78059 13.366C5.80396 13.3616 5.82611 13.3522 5.84555 13.3386C5.86499 13.3249 5.88128 13.3072 5.89333 13.2867L6.04666 13.0667C6.27792 12.7325 6.58676 12.4594 6.9467 12.2708C7.30664 12.0822 7.70695 11.9836 8.11333 11.9836C8.5197 11.9836 8.92001 12.0822 9.27995 12.2708C9.6399 12.4594 9.94873 12.7325 10.18 13.0667L10.26 13.1867C10.2887 13.2273 10.3314 13.2559 10.38 13.2667C10.4023 13.27 10.425 13.2687 10.4467 13.263C10.4685 13.2572 10.4889 13.2472 10.5067 13.2333L11.88 12.1933C11.9281 12.1552 11.9597 12.1001 11.9684 12.0393C11.9771 11.9785 11.9621 11.9168 11.9267 11.8667L11.7533 11.6133C11.5275 11.284 11.3785 10.9082 11.3173 10.5135C11.2562 10.1189 11.2844 9.71559 11.4 9.33334C11.5172 8.93159 11.7291 8.56385 12.018 8.26106C12.3068 7.95826 12.6642 7.72927 13.06 7.59334L13.1933 7.54668C13.2489 7.52442 13.2934 7.48108 13.3171 7.42612C13.3409 7.37117 13.3419 7.30906 13.32 7.25334L12.8 5.59334C12.7875 5.5643 12.7693 5.53809 12.7463 5.51632C12.7234 5.49455 12.6963 5.47766 12.6667 5.46668C12.647 5.45672 12.6253 5.45153 12.6033 5.45153C12.5813 5.45153 12.5596 5.45672 12.54 5.46668L12.3133 5.54001C11.9299 5.66656 11.5215 5.69809 11.1231 5.6319C10.7248 5.56571 10.3486 5.40377 10.0267 5.16001L9.99999 5.10001C9.69111 4.86609 9.44066 4.56375 9.26831 4.21674C9.09596 3.86972 9.0064 3.48747 9.00666 3.10001V2.89334C9.00787 2.82909 8.98395 2.7669 8.93999 2.72001C8.90164 2.68535 8.85169 2.66632 8.79999 2.66668H7.10666C7.0795 2.66837 7.05294 2.67541 7.02851 2.6874C7.00408 2.69939 6.98226 2.71608 6.9643 2.73652C6.94633 2.75696 6.93258 2.78075 6.92384 2.80651C6.91509 2.83228 6.91152 2.85952 6.91333 2.88668V3.05334C6.91337 3.45137 6.82202 3.84409 6.64634 4.20124C6.47065 4.5584 6.21531 4.87045 5.89999 5.11334L5.81333 5.18001C5.47315 5.43901 5.07448 5.61036 4.65246 5.67896C4.23044 5.74755 3.79802 5.71128 3.39333 5.57334C3.36304 5.56318 3.33027 5.56318 3.29999 5.57334C3.26237 5.5962 3.23403 5.63162 3.21999 5.67334L2.66666 7.41334C2.64737 7.4726 2.65189 7.53705 2.67926 7.59303C2.70664 7.64902 2.75471 7.69217 2.81333 7.71334L2.93333 7.74668Z" fill="#4388FB"/>
<path d="M8.00001 10.3333C7.53852 10.3333 7.08739 10.1965 6.70368 9.94009C6.31996 9.6837 6.02089 9.31928 5.84429 8.89292C5.66768 8.46656 5.62147 7.9974 5.71151 7.54478C5.80154 7.09216 6.02377 6.6764 6.35009 6.35008C6.67641 6.02375 7.09217 5.80152 7.5448 5.71149C7.99742 5.62146 8.46657 5.66767 8.89293 5.84427C9.3193 6.02088 9.68371 6.31995 9.9401 6.70366C10.1965 7.08738 10.3333 7.5385 10.3333 7.99999C10.3333 8.61883 10.0875 9.21232 9.64992 9.64991C9.21234 10.0875 8.61885 10.3333 8.00001 10.3333ZM8.00001 6.99999C7.80223 6.99999 7.60889 7.05864 7.44444 7.16852C7.27999 7.2784 7.15181 7.43458 7.07613 7.61731C7.00044 7.80003 6.98064 8.0011 7.01922 8.19508C7.05781 8.38906 7.15305 8.56725 7.2929 8.7071C7.43275 8.84695 7.61093 8.94219 7.80492 8.98078C7.9989 9.01936 8.19996 8.99956 8.38269 8.92387C8.56542 8.84818 8.7216 8.72001 8.83148 8.55556C8.94136 8.39111 9.00001 8.19777 9.00001 7.99999C9.00001 7.73477 8.89465 7.48042 8.70711 7.29288C8.51958 7.10535 8.26522 6.99999 8.00001 6.99999Z" fill="#4388FB"/>
</svg>
