<svg width="20" height="19" viewBox="0 0 20 19" fill="none" xmlns="http://www.w3.org/2000/svg">
<path d="M17 13C16.2144 13.0006 15.4604 13.3094 14.9 13.86L7 10.34V9.99999V9.66999L14.9 6.13999C15.3948 6.62501 16.0423 6.9238 16.7324 6.9856C17.4225 7.04741 18.1128 6.86843 18.6859 6.47906C19.259 6.08969 19.6797 5.51393 19.8765 4.84958C20.0733 4.18523 20.034 3.47325 19.7654 2.83455C19.4968 2.19585 19.0154 1.66982 18.4029 1.3458C17.7905 1.02179 17.0847 0.919754 16.4056 1.05704C15.7264 1.19433 15.1158 1.56246 14.6772 2.09893C14.2387 2.63539 13.9994 3.30711 14 3.99999V4.33999L6.1 7.85999C5.67836 7.44575 5.14375 7.16529 4.56327 7.05382C3.98279 6.94235 3.38232 7.00485 2.83723 7.23346C2.29215 7.46207 1.82674 7.84661 1.49944 8.3388C1.17214 8.831 0.997528 9.40891 0.997528 9.99999C0.997528 10.5911 1.17214 11.169 1.49944 11.6612C1.82674 12.1534 2.29215 12.5379 2.83723 12.7665C3.38232 12.9951 3.98279 13.0576 4.56327 12.9462C5.14375 12.8347 5.67836 12.5542 6.1 12.14L14 15.67V16C14 16.5933 14.176 17.1734 14.5056 17.6667C14.8352 18.16 15.3038 18.5446 15.852 18.7716C16.4001 18.9987 17.0033 19.0581 17.5853 18.9423C18.1672 18.8266 18.7018 18.5409 19.1213 18.1213C19.5409 17.7018 19.8266 17.1672 19.9424 16.5853C20.0581 16.0033 19.9987 15.4001 19.7716 14.8519C19.5446 14.3038 19.1601 13.8352 18.6667 13.5056C18.1734 13.1759 17.5933 13 17 13ZM17 2.99999C17.1978 2.99999 17.3911 3.05864 17.5556 3.16852C17.72 3.2784 17.8482 3.43458 17.9239 3.61731C17.9996 3.80004 18.0194 4.0011 17.9808 4.19508C17.9422 4.38906 17.847 4.56725 17.7071 4.7071C17.5673 4.84695 17.3891 4.94219 17.1951 4.98078C17.0011 5.01936 16.8 4.99956 16.6173 4.92387C16.4346 4.84818 16.2784 4.72001 16.1685 4.55556C16.0587 4.39111 16 4.19777 16 3.99999C16 3.73478 16.1054 3.48042 16.2929 3.29289C16.4804 3.10535 16.7348 2.99999 17 2.99999ZM4 11C3.80222 11 3.60888 10.9413 3.44443 10.8315C3.27998 10.7216 3.15181 10.5654 3.07612 10.3827C3.00044 10.2 2.98063 9.99888 3.01922 9.8049C3.0578 9.61092 3.15304 9.43274 3.2929 9.29289C3.43275 9.15303 3.61093 9.05779 3.80491 9.01921C3.99889 8.98062 4.19996 9.00043 4.38269 9.07611C4.56541 9.1518 4.72159 9.27997 4.83147 9.44442C4.94135 9.60887 5 9.80221 5 9.99999C5 10.2652 4.89465 10.5196 4.70711 10.7071C4.51957 10.8946 4.26522 11 4 11ZM17 17C16.8022 17 16.6089 16.9413 16.4444 16.8315C16.28 16.7216 16.1518 16.5654 16.0761 16.3827C16.0004 16.1999 15.9806 15.9989 16.0192 15.8049C16.0578 15.6109 16.153 15.4327 16.2929 15.2929C16.4327 15.153 16.6109 15.0578 16.8049 15.0192C16.9989 14.9806 17.2 15.0004 17.3827 15.0761C17.5654 15.1518 17.7216 15.28 17.8315 15.4444C17.9414 15.6089 18 15.8022 18 16C18 16.2652 17.8946 16.5196 17.7071 16.7071C17.5196 16.8946 17.2652 17 17 17Z" fill="#292929"/>
</svg>
