<svg width="24" height="24" viewBox="0 0 24 24" fill="none" xmlns="http://www.w3.org/2000/svg">
<path d="M10.0058 16.9999C9.87419 17.0007 9.74373 16.9755 9.62189 16.9257C9.50005 16.8759 9.38924 16.8026 9.2958 16.7099C9.20207 16.617 9.12768 16.5064 9.07691 16.3845C9.02614 16.2626 9 16.1319 9 15.9999C9 15.8679 9.02614 15.7372 9.07691 15.6154C9.12768 15.4935 9.20207 15.3829 9.2958 15.2899L12.6058 11.9999L9.4258 8.68993C9.23955 8.50257 9.13501 8.24911 9.13501 7.98493C9.13501 7.72074 9.23955 7.46729 9.4258 7.27993C9.51876 7.1862 9.62936 7.11181 9.75122 7.06104C9.87308 7.01027 10.0038 6.98413 10.1358 6.98413C10.2678 6.98413 10.3985 7.01027 10.5204 7.06104C10.6422 7.11181 10.7528 7.1862 10.8458 7.27993L14.7058 11.2799C14.889 11.4669 14.9917 11.7182 14.9917 11.9799C14.9917 12.2417 14.889 12.493 14.7058 12.6799L10.7058 16.6799C10.616 16.7769 10.508 16.855 10.3878 16.91C10.2677 16.9649 10.1378 16.9955 10.0058 16.9999Z" fill="#293241"/>
</svg>
