<svg width="16" height="16" viewBox="0 0 16 16" fill="none" xmlns="http://www.w3.org/2000/svg">
<path d="M2.15781 7.66034C1.89531 8.00722 1.75 8.43222 1.75 8.8744C1.75 9.57597 2.14219 10.24 2.77344 10.6103C2.93595 10.7057 3.12097 10.7558 3.30937 10.7557L7.05625 10.7557L6.9625 12.676C6.94062 13.14 7.10469 13.5807 7.42344 13.9166C7.57987 14.0822 7.76859 14.2139 7.97794 14.3037C8.1873 14.3934 8.41284 14.4393 8.64062 14.4385C9.45312 14.4385 10.1719 13.8916 10.3875 13.1088L11.7297 8.2494L13.75 8.2494C14.0266 8.2494 14.25 8.02596 14.25 7.7494L14.25 2.0619C14.25 1.78534 14.0266 1.5619 13.75 1.5619L4.35469 1.5619C4.21094 1.5619 4.07031 1.59003 3.94062 1.64628C3.19687 1.96347 2.71719 2.69003 2.71719 3.49628C2.71719 3.69315 2.74531 3.8869 2.80156 4.0744C2.53906 4.42128 2.39375 4.84628 2.39375 5.28847C2.39375 5.48534 2.42187 5.67909 2.47812 5.86659C2.21562 6.21347 2.07031 6.63847 2.07031 7.08065C2.07344 7.27753 2.10156 7.47284 2.15781 7.66034ZM13.125 2.6869L13.125 7.1244L11.8594 7.1244L11.8594 2.6869L13.125 2.6869ZM3.18125 8.20253L3.52344 7.90565L3.30625 7.50878C3.2347 7.37804 3.19759 7.23125 3.19844 7.08221C3.19844 6.8244 3.31094 6.57909 3.50469 6.41034L3.84687 6.11347L3.62969 5.71659C3.55813 5.58586 3.52103 5.43906 3.52187 5.29003C3.52187 5.03222 3.63437 4.7869 3.82812 4.61815L4.17031 4.32128L3.95312 3.9244C3.88157 3.79367 3.84447 3.64687 3.84531 3.49784C3.84531 3.14784 4.05156 2.83221 4.37031 2.68847L10.8594 2.68846L10.8594 7.1744L9.30469 12.8072C9.2646 12.9516 9.17854 13.079 9.05956 13.17C8.94057 13.2611 8.79515 13.3109 8.64531 13.3119C8.52656 13.3119 8.40938 13.2775 8.31563 13.2072C8.16094 13.0916 8.07812 12.9166 8.0875 12.7307L8.2375 9.63065L3.325 9.63065C3.04687 9.46034 2.875 9.17284 2.875 8.8744C2.875 8.61659 2.9875 8.37284 3.18125 8.20253Z" fill="#262626"/>
</svg>
