<svg width="14" height="14" viewBox="0 0 14 14" fill="none" xmlns="http://www.w3.org/2000/svg">
<path d="M12.8422 7.33966C13.1047 6.99279 13.25 6.56779 13.25 6.1256C13.25 5.42404 12.8578 4.75998 12.2266 4.38966C12.0641 4.29434 11.879 4.24417 11.6906 4.24435L7.94375 4.24435L8.0375 2.32404C8.05938 1.85997 7.89531 1.41935 7.57656 1.08341C7.42013 0.91783 7.23141 0.786088 7.02206 0.696326C6.8127 0.606563 6.58716 0.560688 6.35937 0.561536C5.54687 0.561536 4.82812 1.10841 4.6125 1.89122L3.27031 6.7506L1.25 6.7506C0.973436 6.7506 0.749999 6.97404 0.749999 7.2506L0.749998 12.9381C0.749998 13.2147 0.973435 13.4381 1.25 13.4381L10.6453 13.4381C10.7891 13.4381 10.9297 13.41 11.0594 13.3537C11.8031 13.0365 12.2828 12.31 12.2828 11.5037C12.2828 11.3069 12.2547 11.1131 12.1984 10.9256C12.4609 10.5787 12.6062 10.1537 12.6062 9.71154C12.6062 9.51466 12.5781 9.32091 12.5219 9.13341C12.7844 8.78654 12.9297 8.36154 12.9297 7.91935C12.9266 7.72248 12.8984 7.52716 12.8422 7.33966ZM1.875 12.3131L1.875 7.8756L3.14062 7.8756L3.14062 12.3131L1.875 12.3131ZM11.8187 6.79748L11.4766 7.09435L11.6937 7.49123C11.7653 7.62196 11.8024 7.76876 11.8016 7.91779C11.8016 8.1756 11.6891 8.42091 11.4953 8.58966L11.1531 8.88654L11.3703 9.28341C11.4419 9.41415 11.479 9.56094 11.4781 9.70998C11.4781 9.96779 11.3656 10.2131 11.1719 10.3819L10.8297 10.6787L11.0469 11.0756C11.1184 11.2063 11.1555 11.3531 11.1547 11.5022C11.1547 11.8522 10.9484 12.1678 10.6297 12.3115L4.14062 12.3115L4.14062 7.8256L5.69531 2.19279C5.7354 2.04841 5.82146 1.92104 5.94044 1.82997C6.05943 1.7389 6.20485 1.68909 6.35469 1.6881C6.47344 1.6881 6.59062 1.72247 6.68437 1.79279C6.83906 1.90841 6.92187 2.08341 6.9125 2.26935L6.7625 5.36935L11.675 5.36935C11.9531 5.53966 12.125 5.82716 12.125 6.1256C12.125 6.38341 12.0125 6.62716 11.8187 6.79748Z" fill="#262626"/>
</svg>
