<svg width="32" height="24" viewBox="0 0 32 24" fill="none" xmlns="http://www.w3.org/2000/svg">
<path d="M1.504 23.56L0.544 22.216C1.376 22.216 2.4 22.072 3.616 21.784C4.832 21.464 6.048 21 7.264 20.392C8.512 19.752 9.536 18.984 10.336 18.088C11.552 16.776 12.16 15.624 12.16 14.632C11.84 14.984 11.232 15.304 10.336 15.592C9.472 15.848 8.544 15.976 7.552 15.976C6.176 15.976 4.944 15.64 3.856 14.968C2.8 14.296 1.968 13.4 1.36 12.28C0.752 11.128 0.448 9.864 0.448 8.488C0.448 6.152 1.184 4.248 2.656 2.776C4.128 1.272 6.08 0.519998 8.512 0.519998C10.208 0.519998 11.712 0.935998 13.024 1.768C14.368 2.6 15.36 3.752 16 5.224C16.608 3.752 17.552 2.6 18.832 1.768C20.112 0.935998 21.664 0.519998 23.488 0.519998C25.088 0.519998 26.528 0.903997 27.808 1.672C29.088 2.408 30.096 3.496 30.832 4.936C31.568 6.344 31.936 8.072 31.936 10.12C31.936 11.752 31.584 13.352 30.88 14.92C30.176 16.456 29.2 17.848 27.952 19.096C26.736 20.312 25.312 21.272 23.68 21.976C21.248 23.032 18.848 23.56 16.48 23.56L15.52 22.216C16.352 22.216 17.376 22.072 18.592 21.784C19.808 21.464 21.024 21 22.24 20.392C23.488 19.752 24.512 18.984 25.312 18.088C26.528 16.776 27.136 15.624 27.136 14.632C26.816 14.984 26.208 15.304 25.312 15.592C24.448 15.848 23.52 15.976 22.528 15.976C19.968 15.976 18.016 14.92 16.672 12.808C16.16 14.92 15.12 16.824 13.552 18.52C11.984 20.216 10.096 21.48 7.888 22.312C5.648 23.144 3.52 23.56 1.504 23.56Z" fill="#C5AC72"/>
</svg>
