<svg width="16" height="16" viewBox="0 0 16 16" fill="none" xmlns="http://www.w3.org/2000/svg">
<path d="M8.00004 8.66683C8.36823 8.66683 8.66671 8.36835 8.66671 8.00016C8.66671 7.63197 8.36823 7.3335 8.00004 7.3335C7.63185 7.3335 7.33337 7.63197 7.33337 8.00016C7.33337 8.36835 7.63185 8.66683 8.00004 8.66683Z" fill="#818181"/>
<path d="M10.6667 8.66683C11.0349 8.66683 11.3333 8.36835 11.3333 8.00016C11.3333 7.63197 11.0349 7.3335 10.6667 7.3335C10.2985 7.3335 10 7.63197 10 8.00016C10 8.36835 10.2985 8.66683 10.6667 8.66683Z" fill="#818181"/>
<path d="M5.33329 8.66683C5.70148 8.66683 5.99996 8.36835 5.99996 8.00016C5.99996 7.63197 5.70148 7.3335 5.33329 7.3335C4.9651 7.3335 4.66663 7.63197 4.66663 8.00016C4.66663 8.36835 4.9651 8.66683 5.33329 8.66683Z" fill="#818181"/>
<path d="M12.7133 3.28684C11.6194 2.18584 10.1757 1.50099 8.63104 1.35034C7.08636 1.19969 5.53752 1.5927 4.25155 2.4616C2.96557 3.3305 2.02305 4.62085 1.58647 6.11018C1.14989 7.59952 1.24661 9.19451 1.85996 10.6202C1.92388 10.7527 1.94486 10.9018 1.91996 11.0468L1.33329 13.8668C1.31069 13.975 1.3153 14.087 1.34672 14.1929C1.37814 14.2988 1.43538 14.3952 1.51329 14.4735C1.57716 14.5369 1.65321 14.5867 1.73685 14.62C1.82049 14.6532 1.90999 14.6691 1.99996 14.6668H2.13329L4.98662 14.0935C5.13164 14.0761 5.2787 14.0968 5.41329 14.1535C6.83896 14.7669 8.43395 14.8636 9.92328 14.427C11.4126 13.9904 12.703 13.0479 13.5719 11.7619C14.4408 10.4759 14.8338 8.92711 14.6831 7.38243C14.5325 5.83775 13.8476 4.39404 12.7466 3.30018L12.7133 3.28684ZM13.2666 8.86018C13.1363 9.65617 12.8271 10.4122 12.3623 11.0714C11.8976 11.7307 11.2893 12.2759 10.5834 12.6661C9.87746 13.0563 9.09222 13.2813 8.28677 13.3241C7.48132 13.367 6.67664 13.2266 5.93329 12.9135C5.66965 12.8014 5.38644 12.7425 5.09996 12.7402C4.97481 12.7411 4.84995 12.7522 4.72662 12.7735L2.84662 13.1535L3.22662 11.2735C3.30231 10.8664 3.25352 10.4459 3.08662 10.0668C2.77355 9.32349 2.63316 8.51881 2.67602 7.71336C2.71888 6.90791 2.94386 6.12268 3.33405 5.41674C3.72424 4.71081 4.26946 4.10258 4.92869 3.63781C5.58791 3.17304 6.34397 2.86386 7.13996 2.73351C7.97547 2.59639 8.83163 2.66016 9.63761 2.91955C10.4436 3.17894 11.1762 3.6265 11.7749 4.2252C12.3736 4.8239 12.8212 5.55655 13.0806 6.36253C13.34 7.16851 13.4037 8.02466 13.2666 8.86018Z" fill="#818181"/>
</svg>
