<svg width="16" height="16" viewBox="0 0 16 16" fill="none" xmlns="http://www.w3.org/2000/svg">
<path d="M7.99996 9.33317C8.73634 9.33317 9.33329 8.73622 9.33329 7.99984C9.33329 7.26346 8.73634 6.6665 7.99996 6.6665C7.26358 6.6665 6.66663 7.26346 6.66663 7.99984C6.66663 8.73622 7.26358 9.33317 7.99996 9.33317Z" fill="#818181"/>
<path d="M12.6667 9.33317C13.4031 9.33317 14 8.73622 14 7.99984C14 7.26346 13.4031 6.6665 12.6667 6.6665C11.9303 6.6665 11.3334 7.26346 11.3334 7.99984C11.3334 8.73622 11.9303 9.33317 12.6667 9.33317Z" fill="#818181"/>
<path d="M3.33333 9.33317C4.06971 9.33317 4.66667 8.73622 4.66667 7.99984C4.66667 7.26346 4.06971 6.6665 3.33333 6.6665C2.59695 6.6665 2 7.26346 2 7.99984C2 8.73622 2.59695 9.33317 3.33333 9.33317Z" fill="#818181"/>
</svg>
