<svg width="24" height="24" viewBox="0 0 24 24" fill="none" xmlns="http://www.w3.org/2000/svg">
<path d="M13.1281 14.5368L10.7469 12.3221L10.775 12.2956C12.4062 10.5838 13.5687 8.61619 14.2531 6.53383H17V4.76473H10.4375V3.00001H8.56247V4.76473H2V6.52059H12.4718C11.839 8.22352 10.85 9.83822 9.49996 11.25C8.62808 10.3368 7.90619 9.34413 7.33433 8.29412H5.45937C6.14373 9.73234 7.08125 11.0912 8.2531 12.3176L3.48592 16.7515L4.81249 18L9.5 13.5882L12.4156 16.3324L13.1281 14.5368Z" fill="#292929"/>
<path d="M17.9091 10H16.0909L12 21H13.8182L14.8409 18.25H19.1591L20.1818 21H22L17.9091 10ZM15.5227 16.4167L17 12.4429L18.4773 16.4167H15.5227Z" fill="#292929"/>
</svg>
