<svg width="16" height="16" viewBox="0 0 16 16" fill="none" xmlns="http://www.w3.org/2000/svg">
<path d="M11.6488 3.17987C11.5604 3.11161 11.459 3.0611 11.3504 3.03126C11.2419 3.00141 11.1284 2.99283 11.0164 3.00599C10.9045 3.01915 10.7963 3.05381 10.6981 3.10795C10.6 3.16209 10.5138 3.23466 10.4446 3.32145L4.46625 10.8171L1.53688 7.33579C1.46816 7.2466 1.38178 7.17177 1.28284 7.11576C1.18391 7.05975 1.07444 7.02369 0.960939 7.00973C0.847439 6.99576 0.732219 7.00418 0.622119 7.03448C0.512018 7.06477 0.409282 7.11633 0.320007 7.18609C0.230731 7.25585 0.156738 7.34239 0.102418 7.44057C0.0480979 7.53875 0.0145588 7.64657 0.00379138 7.75764C-0.00697605 7.8687 0.00524779 7.98075 0.0397371 8.08712C0.0742263 8.19349 0.130278 8.29201 0.204565 8.37685L3.76593 12.691C3.84631 12.7876 3.94787 12.8655 4.06315 12.9188C4.17843 12.9721 4.3045 12.9996 4.43209 12.9992C4.56752 13.0051 4.70244 12.9794 4.82571 12.9244C4.94897 12.8694 5.05703 12.7865 5.14094 12.6827L11.8281 4.35419C11.8963 4.26593 11.9458 4.16532 11.9737 4.05822C12.0016 3.95113 12.0074 3.83969 11.9907 3.73039C11.974 3.6211 11.9352 3.51614 11.8765 3.42162C11.8178 3.3271 11.7404 3.24492 11.6488 3.17987Z" fill="#1890FF"/>
<path d="M15.6577 3.18003C15.5705 3.11171 15.4705 3.06116 15.3635 3.03129C15.2565 3.00141 15.1445 2.99282 15.0341 3.00599C14.9237 3.01917 14.8171 3.05385 14.7203 3.10805C14.6235 3.16224 14.5385 3.23487 14.4702 3.32175L8.57489 10.8243L8.06116 10.1991L7 11.5495L7.92641 12.6916C8.00567 12.7883 8.10582 12.8662 8.2195 12.9196C8.33318 12.9729 8.4575 13.0004 8.58332 13C8.70982 12.9994 8.83456 12.9706 8.94829 12.9158C9.06201 12.861 9.16179 12.7815 9.24022 12.6832L15.8346 4.34709C15.9005 4.25901 15.9482 4.15892 15.975 4.05256C16.0018 3.9462 16.0071 3.83566 15.9907 3.72725C15.9743 3.61885 15.9364 3.51472 15.8793 3.42082C15.8221 3.32692 15.7468 3.2451 15.6577 3.18003Z" fill="#1890FF"/>
<path d="M5.3562 9L6 7.57566L5.90019 7.36464C5.86078 7.26847 5.81075 7.18734 5.75308 7.12613C5.69542 7.06493 5.63132 7.0249 5.56465 7.00848C5.49797 6.99205 5.4301 6.99955 5.36512 7.03054C5.30013 7.06153 5.23938 7.11536 5.18652 7.1888C5.13525 7.26135 5.09263 7.35105 5.0611 7.45272C5.02957 7.55439 5.00976 7.66603 5.0028 7.78124C4.99584 7.89644 5.00188 8.01293 5.02056 8.12401C5.03924 8.23509 5.0702 8.33857 5.11166 8.4285L5.3562 9Z" fill="#1890FF"/>
</svg>
