<svg width="16" height="18" viewBox="0 0 16 18" fill="none" xmlns="http://www.w3.org/2000/svg">
<path d="M1.87636 15.897H12.2465L11.7513 14.2432C11.8247 14.3092 16 18 16 18V1.85625C15.9505 0.85275 15.1127 0 14.0742 0L1.88 0.00225C0.842182 0.00225 0 0.8565 0 1.86V14.04C0 15.0982 0.840727 15.897 1.87636 15.897ZM9.54764 4.26225L9.52364 4.27125L9.53236 4.26225H9.54764ZM3.99782 5.214C5.33091 4.2135 6.56655 4.2615 6.56655 4.2615L6.66618 4.36275C5.03491 4.764 4.29527 5.5155 4.29527 5.5155C4.37091 5.499 7.66473 3.53925 11.656 5.565C11.656 5.565 10.9149 4.86225 9.384 4.41225L9.51927 4.275C9.73091 4.27575 10.8509 4.31625 12.0495 5.22C12.0495 5.22 13.3905 7.5825 13.3905 10.485C13.3462 10.4295 12.5585 11.7345 10.5316 11.7795C10.5316 11.7795 10.1884 11.379 9.944 11.0295C11.1295 10.6785 11.5731 9.9765 11.5731 9.9765C9.26546 11.475 7.24291 11.241 4.82327 10.2285C4.80073 10.2285 4.79055 10.218 4.77891 10.206V10.2015C4.76727 10.1903 4.75709 10.179 4.73455 10.179H4.69091C4.54255 10.0785 4.44364 10.029 4.44364 10.029C4.44364 10.029 4.88655 10.731 6.02473 11.082C5.72582 11.4338 5.42982 11.8335 5.42982 11.8335C3.40364 11.784 2.66473 10.479 2.66473 10.479C2.66473 7.572 3.99782 5.214 3.99782 5.214Z" fill="#5C6BC0"/>
<path d="M10 9C10.5512 9 11 8.5514 11 7.99813C11 7.4486 10.5535 7 10 7V7.00224C9.45116 7.00224 9.00155 7.44935 9 8.00262C9 8.5514 9.44884 9 10 9Z" fill="#5C6BC0"/>
<path d="M6 9C6.55116 9 7 8.5514 7 7.99813C7 7.4486 6.55426 7 6.0031 7L6 7.00224C5.44884 7.00224 5 7.44935 5 8.00262C5 8.5514 5.44884 9 6 9Z" fill="#5C6BC0"/>
</svg>
