<svg width="24" height="24" viewBox="0 0 24 24" fill="none" xmlns="http://www.w3.org/2000/svg">
<g clip-path="url(#clip0)">
<path d="M11.7859 17.6576H12.981C12.981 17.6576 13.3422 17.6176 13.526 17.4189C13.696 17.2364 13.6898 16.8938 13.6898 16.8938C13.6898 16.8938 13.666 15.29 14.4111 15.0537C15.1449 14.8212 16.0874 16.6038 17.0863 17.2901C17.8413 17.8089 18.4151 17.6951 18.4151 17.6951L21.0865 17.6576C21.0865 17.6576 22.4841 17.5714 21.8216 16.4726C21.7678 16.3825 21.4353 15.66 19.8352 14.1749C18.1601 12.6198 18.3851 12.8723 20.4027 10.1833C21.6316 8.54571 22.1229 7.54564 21.9691 7.11811C21.8228 6.71058 20.919 6.81808 20.919 6.81808L17.9138 6.83559C17.9138 6.83559 17.6913 6.80558 17.525 6.90434C17.3638 7.00185 17.26 7.22686 17.26 7.22686C17.26 7.22686 16.7837 8.49446 16.1487 9.57204C14.8098 11.846 14.2735 11.966 14.0548 11.8247C13.546 11.4959 13.6735 10.5021 13.6735 9.79706C13.6735 7.59314 14.0073 6.67432 13.0222 6.43681C12.6947 6.35805 12.4547 6.30555 11.6184 6.2968C10.5458 6.28554 9.63696 6.30055 9.12317 6.55181C8.78065 6.71933 8.51688 7.09311 8.67814 7.11436C8.87691 7.14061 9.32694 7.23562 9.56571 7.56064C9.87448 7.97942 9.86323 8.92199 9.86323 8.92199C9.86323 8.92199 10.0407 11.5159 9.44945 11.8385C9.04317 12.0597 8.48688 11.6084 7.29304 9.54454C6.68175 8.48821 6.21921 7.31937 6.21921 7.31937C6.21921 7.31937 6.13046 7.10186 5.9717 6.9856C5.77918 6.84434 5.50916 6.79933 5.50916 6.79933L2.65145 6.81683C2.65145 6.81683 2.22267 6.82934 2.06516 7.0156C1.92515 7.18186 2.05391 7.52439 2.05391 7.52439C2.05391 7.52439 4.29157 12.7585 6.82426 15.3975C9.14818 17.8164 11.7859 17.6576 11.7859 17.6576Z" fill="#1E88E5"/>
</g>
<defs>
<clipPath id="clip0">
<rect width="20" height="20" fill="white" transform="translate(2 2)"/>
</clipPath>
</defs>
</svg>
