<svg width="35" height="16" viewBox="0 0 35 16" fill="none" xmlns="http://www.w3.org/2000/svg">
<path d="M2.35938 10.1172H7.33594V12H0.015625V0.625H2.35938V10.1172ZM8.1875 7.69531C8.1875 6.85677 8.34896 6.10938 8.67188 5.45312C8.99479 4.79688 9.45833 4.28906 10.0625 3.92969C10.6719 3.57031 11.3776 3.39062 12.1797 3.39062C13.3203 3.39062 14.25 3.73958 14.9688 4.4375C15.6927 5.13542 16.0964 6.08333 16.1797 7.28125L16.1953 7.85938C16.1953 9.15625 15.8333 10.1979 15.1094 10.9844C14.3854 11.7656 13.4141 12.1562 12.1953 12.1562C10.9766 12.1562 10.0026 11.7656 9.27344 10.9844C8.54948 10.2031 8.1875 9.14062 8.1875 7.79688V7.69531ZM10.4453 7.85938C10.4453 8.66146 10.5964 9.27604 10.8984 9.70312C11.2005 10.125 11.6328 10.3359 12.1953 10.3359C12.7422 10.3359 13.1693 10.1276 13.4766 9.71094C13.7839 9.28906 13.9375 8.61719 13.9375 7.69531C13.9375 6.90885 13.7839 6.29948 13.4766 5.86719C13.1693 5.4349 12.737 5.21875 12.1797 5.21875C11.6276 5.21875 11.2005 5.4349 10.8984 5.86719C10.5964 6.29427 10.4453 6.95833 10.4453 7.85938ZM17.2578 7.71094C17.2578 6.41406 17.5651 5.36979 18.1797 4.57812C18.7995 3.78646 19.6328 3.39062 20.6797 3.39062C21.6068 3.39062 22.3281 3.70833 22.8438 4.34375L22.9375 3.54688H24.9844V11.7188C24.9844 12.4583 24.8151 13.1016 24.4766 13.6484C24.1432 14.1953 23.6719 14.612 23.0625 14.8984C22.4531 15.1849 21.7396 15.3281 20.9219 15.3281C20.3021 15.3281 19.6979 15.2031 19.1094 14.9531C18.5208 14.7083 18.0755 14.3906 17.7734 14L18.7734 12.625C19.3359 13.2552 20.0182 13.5703 20.8203 13.5703C21.4193 13.5703 21.8854 13.4089 22.2188 13.0859C22.5521 12.7682 22.7188 12.3151 22.7188 11.7266V11.2734C22.1979 11.862 21.513 12.1562 20.6641 12.1562C19.6484 12.1562 18.8255 11.7604 18.1953 10.9688C17.5703 10.1719 17.2578 9.11719 17.2578 7.80469V7.71094ZM19.5156 7.875C19.5156 8.64062 19.6693 9.24219 19.9766 9.67969C20.2839 10.112 20.7057 10.3281 21.2422 10.3281C21.9297 10.3281 22.4219 10.0703 22.7188 9.55469V6C22.4167 5.48438 21.9297 5.22656 21.2578 5.22656C20.7161 5.22656 20.2891 5.44792 19.9766 5.89062C19.6693 6.33333 19.5156 6.99479 19.5156 7.875ZM26.375 7.69531C26.375 6.85677 26.5365 6.10938 26.8594 5.45312C27.1823 4.79688 27.6458 4.28906 28.25 3.92969C28.8594 3.57031 29.5651 3.39062 30.3672 3.39062C31.5078 3.39062 32.4375 3.73958 33.1562 4.4375C33.8802 5.13542 34.2839 6.08333 34.3672 7.28125L34.3828 7.85938C34.3828 9.15625 34.0208 10.1979 33.2969 10.9844C32.5729 11.7656 31.6016 12.1562 30.3828 12.1562C29.1641 12.1562 28.1901 11.7656 27.4609 10.9844C26.737 10.2031 26.375 9.14062 26.375 7.79688V7.69531ZM28.6328 7.85938C28.6328 8.66146 28.7839 9.27604 29.0859 9.70312C29.388 10.125 29.8203 10.3359 30.3828 10.3359C30.9297 10.3359 31.3568 10.1276 31.6641 9.71094C31.9714 9.28906 32.125 8.61719 32.125 7.69531C32.125 6.90885 31.9714 6.29948 31.6641 5.86719C31.3568 5.4349 30.9245 5.21875 30.3672 5.21875C29.8151 5.21875 29.388 5.4349 29.0859 5.86719C28.7839 6.29427 28.6328 6.95833 28.6328 7.85938Z" fill="#121212"/>
</svg>
