<svg width="45" height="26" viewBox="0 0 45 26" fill="none" xmlns="http://www.w3.org/2000/svg">
<rect x="45" y="22" width="44" height="22" rx="11" transform="rotate(-180 45 22)" fill="#121212"/>
<g clip-path="url(#clip0)" filter="url(#filter0_d)">
<rect x="22" y="20" width="18" height="18" rx="9" transform="rotate(-180 22 20)" fill="white"/>
</g>
<path d="M32 14.3333C33.8409 14.3333 35.3333 12.8409 35.3333 11C35.3333 9.15904 33.8409 7.66666 32 7.66666C30.159 7.66666 28.6667 9.15904 28.6667 11C28.6667 12.8409 30.159 14.3333 32 14.3333Z" stroke="white" stroke-linecap="round" stroke-linejoin="round"/>
<path d="M32 3.66666V4.99999" stroke="white" stroke-linecap="round" stroke-linejoin="round"/>
<path d="M32 17V18.3333" stroke="white" stroke-linecap="round" stroke-linejoin="round"/>
<path d="M26.8133 5.81332L27.76 6.75999" stroke="white" stroke-linecap="round" stroke-linejoin="round"/>
<path d="M36.24 15.24L37.1867 16.1867" stroke="white" stroke-linecap="round" stroke-linejoin="round"/>
<path d="M24.6667 11H26" stroke="white" stroke-linecap="round" stroke-linejoin="round"/>
<path d="M38 11H39.3333" stroke="white" stroke-linecap="round" stroke-linejoin="round"/>
<path d="M26.8133 16.1867L27.76 15.24" stroke="white" stroke-linecap="round" stroke-linejoin="round"/>
<path d="M36.24 6.75999L37.1867 5.81332" stroke="white" stroke-linecap="round" stroke-linejoin="round"/>
<defs>
<filter id="filter0_d" x="0" y="0" width="26" height="26" filterUnits="userSpaceOnUse" color-interpolation-filters="sRGB">
<feFlood flood-opacity="0" result="BackgroundImageFix"/>
<feColorMatrix in="SourceAlpha" type="matrix" values="0 0 0 0 0 0 0 0 0 0 0 0 0 0 0 0 0 0 127 0" result="hardAlpha"/>
<feOffset dy="2"/>
<feGaussianBlur stdDeviation="2"/>
<feColorMatrix type="matrix" values="0 0 0 0 0 0 0 0 0 0.137255 0 0 0 0 0.0431373 0 0 0 0.2 0"/>
<feBlend mode="normal" in2="BackgroundImageFix" result="effect1_dropShadow"/>
<feBlend mode="normal" in="SourceGraphic" in2="effect1_dropShadow" result="shape"/>
</filter>
<clipPath id="clip0">
<rect width="18" height="18" fill="white" transform="translate(22 20) rotate(-180)"/>
</clipPath>
</defs>
</svg>
