<svg width="20" height="20" viewBox="0 0 20 20" fill="none" xmlns="http://www.w3.org/2000/svg">
<path d="M9.99996 10.8333C10.4602 10.8333 10.8333 10.4602 10.8333 9.99999C10.8333 9.53975 10.4602 9.16666 9.99996 9.16666C9.53972 9.16666 9.16663 9.53975 9.16663 9.99999C9.16663 10.4602 9.53972 10.8333 9.99996 10.8333Z" fill="#292929"/>
<path d="M13.3333 10.8333C13.7936 10.8333 14.1667 10.4602 14.1667 9.99999C14.1667 9.53975 13.7936 9.16666 13.3333 9.16666C12.8731 9.16666 12.5 9.53975 12.5 9.99999C12.5 10.4602 12.8731 10.8333 13.3333 10.8333Z" fill="#292929"/>
<path d="M6.66671 10.8333C7.12694 10.8333 7.50004 10.4602 7.50004 9.99999C7.50004 9.53975 7.12694 9.16666 6.66671 9.16666C6.20647 9.16666 5.83337 9.53975 5.83337 9.99999C5.83337 10.4602 6.20647 10.8333 6.66671 10.8333Z" fill="#292929"/>
<path d="M15.8916 4.10834C14.5243 2.73209 12.7197 1.87602 10.7888 1.68771C8.85798 1.4994 6.92193 1.99066 5.31446 3.07678C3.707 4.16291 2.52884 5.77585 1.98311 7.63752C1.43739 9.49919 1.55829 11.4929 2.32498 13.275C2.40489 13.4406 2.4311 13.6271 2.39998 13.8083L1.66664 17.3333C1.63839 17.4685 1.64416 17.6085 1.68343 17.7409C1.72271 17.8733 1.79425 17.9938 1.89164 18.0917C1.97148 18.1709 2.06654 18.2332 2.17109 18.2747C2.27564 18.3163 2.38752 18.3362 2.49998 18.3333H2.66664L6.23331 17.6167C6.41458 17.5949 6.59841 17.6207 6.76664 17.6917C8.54873 18.4584 10.5425 18.5793 12.4041 18.0335C14.2658 17.4878 15.8787 16.3097 16.9649 14.7022C18.051 13.0947 18.5423 11.1587 18.3539 9.22782C18.1656 7.29698 17.3096 5.49233 15.9333 4.12501L15.8916 4.10834ZM16.5833 11.075C16.4204 12.07 16.0339 13.0151 15.4529 13.8391C14.872 14.6631 14.1117 15.3447 13.2293 15.8324C12.3469 16.3201 11.3653 16.6014 10.3585 16.6549C9.35168 16.7085 8.34583 16.533 7.41664 16.1417C7.0871 16.0015 6.73309 15.9279 6.37498 15.925C6.21854 15.9261 6.06246 15.94 5.90831 15.9667L3.55831 16.4417L4.03331 14.0917C4.12791 13.5827 4.06693 13.0571 3.85831 12.5833C3.46697 11.6542 3.29148 10.6483 3.34505 9.64149C3.39863 8.63468 3.67986 7.65313 4.1676 6.77072C4.65533 5.8883 5.33686 5.12801 6.16089 4.54705C6.98492 3.96609 7.92999 3.57961 8.92498 3.41668C9.96937 3.24527 11.0396 3.32499 12.047 3.64923C13.0545 3.97346 13.9703 4.53291 14.7187 5.28129C15.4671 6.02967 16.0265 6.94547 16.3508 7.95294C16.675 8.96042 16.7547 10.0306 16.5833 11.075Z" fill="#292929"/>
</svg>
