<svg width="16" height="16" viewBox="0 0 16 16" fill="none" xmlns="http://www.w3.org/2000/svg">
<path d="M8.20001 14.6667H8.13334C7.21902 14.6597 6.31528 14.4704 5.47505 14.1098C4.63481 13.7492 3.87496 13.2246 3.24001 12.5667C2.06257 11.3075 1.39326 9.6569 1.36125 7.9333C1.32924 6.20971 1.9368 4.53535 3.06667 3.23335C3.79459 2.41758 4.70969 1.79074 5.73334 1.40669C5.85278 1.36073 5.98293 1.35012 6.10824 1.37612C6.23354 1.40213 6.34872 1.46366 6.44001 1.55335C6.52455 1.63957 6.58409 1.74713 6.61227 1.86454C6.64045 1.98196 6.63621 2.10483 6.60001 2.22002C6.23464 3.22064 6.16226 4.30472 6.39134 5.34504C6.62042 6.38535 7.14147 7.33875 7.89334 8.09336C8.65222 8.84292 9.60789 9.3622 10.6497 9.59109C11.6915 9.81998 12.7768 9.74911 13.78 9.38669C13.8994 9.34466 14.0283 9.33749 14.1516 9.36602C14.275 9.39456 14.3876 9.45762 14.4764 9.54783C14.5652 9.63803 14.6265 9.75166 14.6531 9.87542C14.6797 9.99918 14.6706 10.128 14.6267 10.2467C14.2861 11.1558 13.7541 11.9811 13.0667 12.6667C12.4272 13.3042 11.6681 13.8091 10.8329 14.1523C9.99774 14.4956 9.10296 14.6704 8.20001 14.6667Z" fill="#292929"/>
</svg>
