<svg width="16" height="16" viewBox="0 0 16 16" fill="none" xmlns="http://www.w3.org/2000/svg">
<path d="M8 1C6.61553 1 5.26215 1.41054 4.11101 2.17971C2.95987 2.94888 2.06266 4.04213 1.53285 5.32121C1.00303 6.6003 0.86441 8.00776 1.13451 9.36563C1.4046 10.7235 2.07129 11.9708 3.05026 12.9497C4.02922 13.9287 5.2765 14.5954 6.63437 14.8655C7.99224 15.1356 9.3997 14.997 10.6788 14.4672C11.9579 13.9373 13.0511 13.0401 13.8203 11.889C14.5895 10.7378 15 9.38447 15 8C15 7.08075 14.8189 6.17049 14.4672 5.32121C14.1154 4.47194 13.5998 3.70026 12.9497 3.05025C12.2997 2.40024 11.5281 1.88463 10.6788 1.53284C9.82951 1.18106 8.91925 1 8 1ZM8 2.4C8.4218 2.40276 8.84201 2.45205 9.253 2.547C9.13132 2.82167 8.94379 3.06211 8.707 3.247C8.553 3.366 8.385 3.464 8.217 3.569C7.68516 3.83085 7.23674 4.23564 6.922 4.738C6.5772 5.4566 6.42753 6.25326 6.488 7.048C6.488 8 6.488 8.56 5.823 9.057C4.864 9.806 3.401 9.386 2.491 9.008C2.43151 8.67527 2.40106 8.338 2.4 8C2.4 6.51479 2.99 5.0904 4.0402 4.0402C5.09041 2.99 6.51479 2.4 8 2.4ZM3.1 10.66C3.5574 10.7789 4.02745 10.8424 4.5 10.849C5.29072 10.8707 6.06549 10.624 6.698 10.149C7.895 9.211 7.895 8.007 7.895 7.041C7.84191 6.4819 7.931 5.91845 8.154 5.403C8.35659 5.12714 8.62651 4.90783 8.938 4.766C9.16056 4.63594 9.37557 4.49338 9.582 4.339C10.017 3.99539 10.3548 3.54418 10.562 3.03C11.5469 3.5339 12.3604 4.31822 12.9 5.284C11.899 5.424 10.478 5.753 10.198 7.055C10.1348 7.36608 10.102 7.68257 10.1 8C10.1227 8.35479 10.0527 8.70939 9.897 9.029L9.827 9.148C9.372 9.904 8.861 10.765 9.554 11.948C9.638 12.095 9.729 12.235 9.82 12.375C10.0063 12.5902 10.1319 12.8511 10.184 13.131C9.49555 13.4345 8.75235 13.5941 8 13.6C6.99454 13.595 6.00897 13.3193 5.14678 12.802C4.2846 12.2847 3.57759 11.5448 3.1 10.66ZM11.451 12.424C11.3299 12.1445 11.1822 11.8773 11.01 11.626C10.933 11.514 10.856 11.402 10.786 11.283C10.513 10.807 10.611 10.583 11.052 9.883L11.122 9.764C11.3963 9.24045 11.5268 8.65346 11.5 8.063C11.4993 7.82822 11.5204 7.59388 11.563 7.363C11.675 6.852 12.76 6.712 13.432 6.663C13.7036 7.71896 13.6586 8.83148 13.3026 9.86207C12.9467 10.8927 12.2954 11.7958 11.43 12.459L11.451 12.424Z" fill="#292929"/>
</svg>
