<svg width="123" height="32" viewBox="0 0 123 32" fill="none" xmlns="http://www.w3.org/2000/svg">
<path d="M43.2338 20.6189H49.4545V22.9724H40.3041V8.75369H43.2338V20.6189ZM50.5189 17.5916C50.5189 16.5434 50.7207 15.6092 51.1244 14.7888C51.528 13.9685 52.1075 13.3338 52.8627 12.8846C53.6244 12.4353 54.5066 12.2107 55.5092 12.2107C56.9349 12.2107 58.097 12.6469 58.9955 13.5193C59.9004 14.3917 60.405 15.5766 60.5092 17.074L60.5287 17.7967C60.5287 19.4178 60.0762 20.7198 59.1713 21.7029C58.2663 22.6795 57.0521 23.1678 55.5287 23.1678C54.0052 23.1678 52.7878 22.6795 51.8763 21.7029C50.9714 20.7263 50.5189 19.3982 50.5189 17.7185V17.5916ZM53.3412 17.7967C53.3412 18.7993 53.53 19.5675 53.9076 20.1013C54.2852 20.6287 54.8256 20.8924 55.5287 20.8924C56.2123 20.8924 56.7461 20.6319 57.1302 20.1111C57.5144 19.5838 57.7064 18.7439 57.7064 17.5916C57.7064 16.6085 57.5144 15.8468 57.1302 15.3064C56.7461 14.7661 56.2058 14.4959 55.5092 14.4959C54.8191 14.4959 54.2852 14.7661 53.9076 15.3064C53.53 15.8403 53.3412 16.6704 53.3412 17.7967ZM61.8568 17.6111C61.8568 15.99 62.2409 14.6847 63.0092 13.6951C63.7839 12.7055 64.8256 12.2107 66.1342 12.2107C67.293 12.2107 68.1947 12.6079 68.8392 13.4021L68.9564 12.406H71.515V22.6209C71.515 23.5454 71.3034 24.3494 70.8802 25.033C70.4636 25.7166 69.8744 26.2374 69.1127 26.5955C68.351 26.9536 67.459 27.1326 66.4369 27.1326C65.6622 27.1326 64.9069 26.9763 64.1713 26.6638C63.4356 26.3579 62.8789 25.9607 62.5013 25.4724L63.7513 23.7537C64.4545 24.5415 65.3073 24.9353 66.3099 24.9353C67.0586 24.9353 67.6413 24.7335 68.058 24.3299C68.4747 23.9327 68.683 23.3663 68.683 22.6306V22.0642C68.0319 22.7999 67.1758 23.1678 66.1146 23.1678C64.8451 23.1678 63.8164 22.673 63.0287 21.6834C62.2474 20.6873 61.8568 19.3689 61.8568 17.7283V17.6111ZM64.6791 17.8162C64.6791 18.7732 64.8711 19.5252 65.2552 20.0721C65.6394 20.6124 66.1667 20.8826 66.8373 20.8826C67.6967 20.8826 68.3119 20.5603 68.683 19.9158V15.4724C68.3054 14.8279 67.6967 14.5056 66.8568 14.5056C66.1797 14.5056 65.6459 14.7823 65.2552 15.3357C64.8711 15.8891 64.6791 16.7159 64.6791 17.8162ZM73.2533 17.5916C73.2533 16.5434 73.4551 15.6092 73.8588 14.7888C74.2624 13.9685 74.8418 13.3338 75.597 12.8846C76.3588 12.4353 77.2409 12.2107 78.2435 12.2107C79.6693 12.2107 80.8314 12.6469 81.7299 13.5193C82.6348 14.3917 83.1394 15.5766 83.2435 17.074L83.2631 17.7967C83.2631 19.4178 82.8106 20.7198 81.9056 21.7029C81.0007 22.6795 79.7865 23.1678 78.2631 23.1678C76.7396 23.1678 75.5222 22.6795 74.6107 21.7029C73.7058 20.7263 73.2533 19.3982 73.2533 17.7185V17.5916ZM76.0756 17.7967C76.0756 18.7993 76.2644 19.5675 76.642 20.1013C77.0196 20.6287 77.5599 20.8924 78.2631 20.8924C78.9467 20.8924 79.4805 20.6319 79.8646 20.1111C80.2487 19.5838 80.4408 18.7439 80.4408 17.5916C80.4408 16.6085 80.2487 15.8468 79.8646 15.3064C79.4805 14.7661 78.9401 14.4959 78.2435 14.4959C77.5534 14.4959 77.0196 14.7661 76.642 15.3064C76.2644 15.8403 76.0756 16.6704 76.0756 17.7967ZM88.3802 9.80838V12.406H90.1869V14.4763H88.3802V19.7498C88.3802 20.1404 88.4551 20.4204 88.6049 20.5896C88.7546 20.7589 89.0411 20.8435 89.4642 20.8435C89.7767 20.8435 90.0534 20.8207 90.2943 20.7752V22.9138C89.7409 23.0831 89.1713 23.1678 88.5853 23.1678C86.6062 23.1678 85.597 22.1684 85.558 20.1697V14.4763H84.015V12.406H85.558V9.80838H88.3802ZM95.7045 18.9783L97.6576 12.406H100.685L96.4369 24.6131L96.2025 25.1697C95.571 26.5499 94.5293 27.24 93.0775 27.24C92.6674 27.24 92.2507 27.1782 91.8275 27.0545V24.9158L92.2572 24.9256C92.7911 24.9256 93.1882 24.8442 93.4486 24.6814C93.7155 24.5187 93.9239 24.2485 94.0736 23.8709L94.4056 23.0017L90.7045 12.406H93.7416L95.7045 18.9783ZM111.31 17.7869C111.31 19.4145 110.939 20.7198 110.197 21.7029C109.461 22.6795 108.465 23.1678 107.208 23.1678C106.141 23.1678 105.278 22.7967 104.62 22.0545V27.0349H101.798V12.406H104.415L104.513 13.4412C105.197 12.6209 106.089 12.2107 107.189 12.2107C108.491 12.2107 109.503 12.6925 110.226 13.656C110.949 14.6196 111.31 15.9477 111.31 17.6404V17.7869ZM108.488 17.5818C108.488 16.5987 108.312 15.8403 107.96 15.3064C107.615 14.7726 107.111 14.5056 106.447 14.5056C105.561 14.5056 104.953 14.8442 104.62 15.5213V19.8474C104.966 20.5441 105.581 20.8924 106.466 20.8924C107.814 20.8924 108.488 19.7888 108.488 17.5818ZM117.931 23.1678C116.382 23.1678 115.119 22.6925 114.142 21.742C113.172 20.7915 112.687 19.5252 112.687 17.9431V17.6697C112.687 16.6085 112.892 15.6612 113.302 14.8279C113.712 13.9881 114.292 13.3435 115.04 12.8943C115.796 12.4386 116.655 12.2107 117.619 12.2107C119.064 12.2107 120.2 12.6665 121.027 13.5779C121.86 14.4894 122.277 15.7817 122.277 17.4549V18.6072H115.548C115.639 19.2973 115.913 19.8507 116.369 20.2674C116.831 20.684 117.413 20.8924 118.117 20.8924C119.204 20.8924 120.053 20.4985 120.665 19.7107L122.052 21.2635C121.629 21.8624 121.056 22.3312 120.333 22.6697C119.611 23.0017 118.81 23.1678 117.931 23.1678ZM117.609 14.4959C117.049 14.4959 116.593 14.6847 116.242 15.0623C115.897 15.4399 115.675 15.9803 115.578 16.6834H119.503V16.4588C119.49 15.8338 119.321 15.352 118.995 15.0135C118.67 14.6684 118.208 14.4959 117.609 14.4959Z" fill="#292929"/>
<rect width="7.1512" height="28.4094" rx="3.5756" transform="matrix(0.999982 -0.00595856 -0.00620884 0.999981 0.273132 3.47708)" fill="#FF546D"/>
<rect width="7.45421" height="30.1903" rx="3.7271" transform="matrix(0.999982 -0.00597426 -0.00619253 0.999981 23.5771 1.54434)" fill="#00D4E6"/>
<path d="M9.30297 30.4472C5.54584 30.9831 -0.000872491 32.141 0.0226525 28.3521C0.046284 24.546 5.59327 23.749 9.36356 23.1821C11.0127 22.9341 13.0438 22.7515 15.4792 22.737C17.9146 22.7225 19.9435 22.8809 21.5897 23.1092C25.3532 23.6312 30.8907 24.3622 30.8671 28.1683C30.8436 31.9572 25.3108 30.8653 21.5601 30.3742C19.939 30.1619 17.9166 30.018 15.4339 30.0328C12.9512 30.0476 10.9268 30.2156 9.30297 30.4472Z" fill="#6D86F5"/>
<path d="M9.48218 1.626C5.73143 1.13486 0.198688 0.0430078 0.175162 3.83191C0.151531 7.63796 5.68902 8.36897 9.45256 8.891C11.0987 9.11934 13.1277 9.27772 15.5631 9.26321C17.9985 9.24869 20.0296 9.06612 21.6787 8.81815C25.449 8.25123 30.996 7.45417 31.0196 3.64812C31.0431 -0.140784 25.4964 1.01709 21.7393 1.55296C20.1154 1.78457 18.0911 1.95257 15.6084 1.96736C13.1257 1.98215 11.1033 1.83827 9.48218 1.626Z" fill="#FFAA50"/>
<rect width="7.1512" height="16.0575" rx="3.5756" transform="matrix(0.999982 -0.00595856 -0.00620884 0.999981 0.288269 1.00693)" fill="#FF546D"/>
<rect width="7.45421" height="17.7485" rx="3.7271" transform="matrix(0.999982 -0.00597426 -0.00619253 0.999981 23.5001 13.986)" fill="#00D4E6"/>
</svg>
