<svg width="16" height="16" viewBox="0 0 16 16" fill="none" xmlns="http://www.w3.org/2000/svg">
<path d="M7.33333 2.66666H2.66666C2.31304 2.66666 1.9739 2.80713 1.72385 3.05718C1.4738 3.30723 1.33333 3.64637 1.33333 3.99999V13.3333C1.33333 13.6869 1.4738 14.0261 1.72385 14.2761C1.9739 14.5262 2.31304 14.6667 2.66666 14.6667H12C12.3536 14.6667 12.6928 14.5262 12.9428 14.2761C13.1929 14.0261 13.3333 13.6869 13.3333 13.3333V8.66666" stroke="#292929" stroke-linecap="round" stroke-linejoin="round"/>
<path d="M12.3333 1.66665C12.5985 1.40144 12.9583 1.25244 13.3333 1.25244C13.7084 1.25244 14.0681 1.40144 14.3333 1.66665C14.5985 1.93187 14.7475 2.29158 14.7475 2.66665C14.7475 3.04173 14.5985 3.40144 14.3333 3.66665L7.99999 9.99999L5.33333 10.6667L5.99999 7.99999L12.3333 1.66665Z" stroke="#292929" stroke-linecap="round" stroke-linejoin="round"/>
</svg>
