<svg width="20" height="20" viewBox="0 0 20 20" fill="none" xmlns="http://www.w3.org/2000/svg">
<path fill-rule="evenodd" clip-rule="evenodd" d="M14.8688 13.4575C17.3126 10.319 17.0918 5.77832 14.2067 2.89313C11.0825 -0.231061 6.01714 -0.231061 2.89295 2.89313C-0.231244 6.01733 -0.231244 11.0826 2.89295 14.2068C5.77813 17.092 10.3188 17.3128 13.4573 14.869C13.4708 14.8843 13.4849 14.8993 13.4996 14.9139L17.7422 19.1566C18.1327 19.5471 18.7659 19.5471 19.1564 19.1566C19.5469 18.7661 19.5469 18.1329 19.1564 17.7424L14.9138 13.4997C14.8991 13.4851 14.8841 13.471 14.8688 13.4575ZM12.7924 4.30735C15.1356 6.65049 15.1356 10.4495 12.7924 12.7926C10.4493 15.1358 6.65031 15.1358 4.30716 12.7926C1.96402 10.4495 1.96402 6.65049 4.30716 4.30735C6.65031 1.9642 10.4493 1.9642 12.7924 4.30735Z" fill="#818181"/>
</svg>
